<?xml version="1.0" encoding="iso-8859-1"?>
<!-- Generator: Adobe Illustrator 16.0.0, SVG Export Plug-In . SVG Version: 6.00 Build 0)  -->
<!DOCTYPE svg PUBLIC "-//W3C//DTD SVG 1.1//EN" "http://www.w3.org/Graphics/SVG/1.1/DTD/svg11.dtd">
<svg version="1.1" id="Capa_1" xmlns="http://www.w3.org/2000/svg" xmlns:xlink="http://www.w3.org/1999/xlink" x="0px" y="0px"
	 width="219.088px" height="219.088px" viewBox="0 0 219.088 219.088" style="enable-background:new 0 0 219.088 219.088;"
	 xml:space="preserve">
<g>
	<g>
		<path d="M142.837,46.527c4.433,3.571,10.028,5.729,16.19,5.729c6.12,0,11.691-2.201,16.137-5.718
			c-3.988,1.172-10.035,1.791-16.137,1.791l0,0l0,0C152.896,48.33,146.825,47.711,142.837,46.527z"/>
		<path d="M57.838,109.029l8.711-8.698L59.224,82.6h0.061l2.856-3.288c-1.373,0.505-2.819,0.812-4.302,0.812
			c-1.477,0-2.926-0.308-4.308-0.812l2.855,3.288h0.073l-7.332,17.731L57.838,109.029z"/>
		<path d="M50.169,77.615c-5.624-3.796-9.496-11.24-9.496-17.981c0-9.49,7.688-17.177,17.165-17.177
			c9.484,0,17.172,7.681,17.172,17.177c0,6.741-3.879,14.179-9.496,17.981c12.602,3.194,22.03,13.612,23.196,22.024
			c5.179-6.604,8.324-14.852,8.324-23.894c0-5.407-1.099-10.564-3.081-15.26l42.088-22.164c0.688,1.297,1.522,2.499,2.405,3.653
			c0.816-5.587,7.088-12.477,15.454-14.596c-3.757-2.527-6.332-7.496-6.332-11.993c0-6.33,5.127-11.454,11.447-11.454
			c6.309,0,11.46,5.13,11.46,11.454c0,4.497-2.595,9.465-6.333,11.993c8.403,2.131,14.688,9.058,15.454,14.675
			c3.435-4.421,5.554-9.895,5.554-15.936C185.15,11.709,173.453,0,159.027,0c-14.431,0-26.135,11.716-26.135,26.119
			c0,2.88,0.579,5.593,1.438,8.181L91.864,56.666C85.154,44.719,72.516,36.55,57.832,36.55c-21.644,0-39.196,17.552-39.196,39.196
			c0,9.033,3.188,17.26,8.318,23.888C28.132,91.222,37.567,80.803,50.169,77.615z"/>
		<path d="M164.837,42.518l-4.896-11.822h0.049l1.899-2.177c-0.913,0.326-1.882,0.523-2.862,0.523c-0.986,0-1.948-0.198-2.874-0.523
			l1.9,2.177h0.055l-4.89,11.822l5.809,5.812l0,0L164.837,42.518z"/>
		<path d="M150.046,175.958h0.098l3.794-4.354c-1.827,0.658-3.751,1.06-5.73,1.06c-1.984,0-3.896-0.396-5.742-1.06l3.8,4.354h0.109
			l-9.785,23.639l11.618,11.611l11.624-11.611L150.046,175.958z"/>
		<path d="M148.201,211.214c-12.458,0-24.819-1.254-32.784-3.708c8.964,7.234,20.368,11.582,32.784,11.582
			c12.422,0,23.82-4.348,32.784-11.582C173.021,209.954,160.659,211.214,148.201,211.214z"/>
		<path d="M107.014,198.908c1.416-11.265,14.055-25.307,30.958-29.593c-7.502-5.055-12.666-14.992-12.666-23.967
			c0-12.642,10.255-22.896,22.896-22.896c12.653,0,22.901,10.254,22.901,22.896c0,8.969-5.17,18.912-12.672,23.967
			c16.91,4.293,29.545,18.328,30.958,29.593c6.911-8.854,11.063-19.973,11.063-32.077c0-28.857-23.4-52.258-52.263-52.258
			c-15.266,0-28.967,6.589-38.518,17.037l-26.113-25.741c-11.28,4.028-37.46,4.171-49.946,0.466
			c6.692,5.301,15.028,8.592,24.22,8.592c8.117,0,15.661-2.473,21.924-6.695l27.104,26.717c-6.82,8.829-10.918,19.862-10.918,31.876
			C95.941,178.936,100.1,190.055,107.014,198.908z"/>
	</g>
</g>
<g>
</g>
<g>
</g>
<g>
</g>
<g>
</g>
<g>
</g>
<g>
</g>
<g>
</g>
<g>
</g>
<g>
</g>
<g>
</g>
<g>
</g>
<g>
</g>
<g>
</g>
<g>
</g>
<g>
</g>
</svg>
